<?xml version="1.0" encoding="UTF-8" standalone="no"?>
<svg
   xmlns:ns2="http://ns.adobe.com/AdobeIllustrator/10.0/"
   xmlns:dc="http://purl.org/dc/elements/1.1/"
   xmlns:cc="http://creativecommons.org/ns#"
   xmlns:rdf="http://www.w3.org/1999/02/22-rdf-syntax-ns#"
   xmlns:svg="http://www.w3.org/2000/svg"
   xmlns="http://www.w3.org/2000/svg"
   xmlns:sodipodi="http://sodipodi.sourceforge.net/DTD/sodipodi-0.dtd"
   xmlns:inkscape="http://www.inkscape.org/namespaces/inkscape"
   width="156.32251mm"
   height="53.551666mm"
   viewBox="0 0 156.3225 53.551666"
   version="1.1"
   id="svg901"
   inkscape:version="1.0.2 (e86c870879, 2021-01-15)"
   sodipodi:docname="logo-text.svg">
  <defs
     id="defs895" />
  <sodipodi:namedview
     id="base"
     pagecolor="#ffffff"
     bordercolor="#666666"
     borderopacity="1.0"
     inkscape:pageopacity="0.0"
     inkscape:pageshadow="2"
     inkscape:zoom="0.98994949"
     inkscape:cx="262.83249"
     inkscape:cy="287.33662"
     inkscape:document-units="mm"
     inkscape:current-layer="layer1"
     showgrid="false"
     units="px"
     fit-margin-top="0"
     fit-margin-left="0"
     fit-margin-right="0"
     fit-margin-bottom="0"
     inkscape:window-width="2560"
     inkscape:window-height="1371"
     inkscape:window-x="0"
     inkscape:window-y="32"
     inkscape:window-maximized="1"
     inkscape:document-rotation="0" />
  <metadata
     id="metadata898">
    <rdf:RDF>
      <cc:Work
         rdf:about="">
        <dc:format>image/svg+xml</dc:format>
        <dc:type
           rdf:resource="http://purl.org/dc/dcmitype/StillImage" />
        <dc:title />
      </cc:Work>
    </rdf:RDF>
  </metadata>
  <g
     inkscape:label="Calque 1"
     inkscape:groupmode="layer"
     id="layer1"
     transform="translate(-5.3777482,-236.75438)">
    <g
       id="g937">
      <g
         transform="matrix(0.49379584,0,0,0.49379584,51.719596,215.85938)"
         id="g1108"
         style="overflow:visible;fill:#32b2a7;fill-opacity:1;stroke-width:0.428652">
        <g
           transform="translate(-93.766085,42.315052)"
           style="fill:#32b2a7;fill-opacity:1;stroke-width:0.428652"
           id="Layer_1-8"
           ns2:layer="yes"
           ns2:dimmedPercent="50"
           ns2:rgbTrio="#4F008000FFFF">
          <g
             style="fill:#32b2a7;fill-opacity:1;stroke-width:0.428652"
             id="g1085">
            <path
               style="fill:#32b2a7;fill-opacity:1;stroke-width:0.428652"
               inkscape:connector-curvature="0"
               ns2:knockout="Off"
               d="m 51.986,57.297 c -1.797,0.025 0.34,0.926 2.686,1.287 0.648,-0.506 1.236,-1.018 1.76,-1.516 -1.461,0.358 -2.948,0.366 -4.446,0.229"
               id="path1061" />
            <path
               style="fill:#32b2a7;fill-opacity:1;stroke-width:0.428652"
               inkscape:connector-curvature="0"
               ns2:knockout="Off"
               d="m 61.631,54.893 c 1.07,-1.477 1.85,-3.094 2.125,-4.766 -0.24,1.192 -0.887,2.221 -1.496,3.307 -3.359,2.115 -0.316,-1.256 -0.002,-2.537 -3.612,4.546 -0.496,2.726 -0.627,3.996"
               id="path1063" />
            <path
               style="fill:#32b2a7;fill-opacity:1;stroke-width:0.428652"
               inkscape:connector-curvature="0"
               ns2:knockout="Off"
               d="m 65.191,45.629 c 0.217,-3.236 -0.637,-2.213 -0.924,-0.978 0.335,0.174 0.6,2.281 0.924,0.978"
               id="path1065" />
            <path
               style="fill:#32b2a7;fill-opacity:1;stroke-width:0.428652"
               inkscape:connector-curvature="0"
               ns2:knockout="Off"
               d="m 45.172,1.399 c 0.959,0.172 2.072,0.304 1.916,0.533 1.049,-0.23 1.287,-0.442 -1.916,-0.533"
               id="path1067" />
            <path
               style="fill:#32b2a7;fill-opacity:1;stroke-width:0.428652"
               inkscape:connector-curvature="0"
               ns2:knockout="Off"
               d="M 47.088,1.932 46.41,2.072 47.041,2.016 47.088,1.932"
               id="path1069" />
            <path
               style="fill:#32b2a7;fill-opacity:1;stroke-width:0.428652"
               inkscape:connector-curvature="0"
               ns2:knockout="Off"
               d="m 76.992,46.856 c 0.107,2.906 -0.85,4.316 -1.713,6.812 l -1.553,0.776 c -1.271,2.468 0.123,1.567 -0.787,3.53 -1.984,1.764 -6.021,5.52 -7.313,5.863 -0.943,-0.021 0.639,-1.113 0.846,-1.541 -2.656,1.824 -2.131,2.738 -6.193,3.846 L 60.16,65.878 C 50.142,70.591 36.226,61.251 36.409,48.507 c -0.107,0.809 -0.304,0.607 -0.526,0.934 -0.517,-6.557 3.028,-13.143 9.007,-15.832 5.848,-2.895 12.704,-1.707 16.893,2.197 -2.301,-3.014 -6.881,-6.209 -12.309,-5.91 -5.317,0.084 -10.291,3.463 -11.951,7.131 -2.724,1.715 -3.04,6.611 -4.227,7.507 -1.597,11.737 3.004,16.808 10.787,22.773 1.225,0.826 0.345,0.951 0.511,1.58 -2.586,-1.211 -4.954,-3.039 -6.901,-5.277 1.033,1.512 2.148,2.982 3.589,4.137 -2.438,-0.826 -5.695,-5.908 -6.646,-6.115 4.203,7.525 17.052,13.197 23.78,10.383 -3.113,0.115 -7.068,0.064 -10.566,-1.229 -1.469,-0.756 -3.467,-2.322 -3.11,-2.615 9.182,3.43 18.667,2.598 26.612,-3.771 2.021,-1.574 4.229,-4.252 4.867,-4.289 -0.961,1.445 0.164,0.695 -0.574,1.971 2.014,-3.248 -0.875,-1.322 2.082,-5.609 l 1.092,1.504 c -0.406,-2.696 3.348,-5.97 2.967,-10.234 0.861,-1.304 0.961,1.403 0.047,4.403 1.268,-3.328 0.334,-3.863 0.66,-6.609 0.352,0.923 0.814,1.904 1.051,2.878 -0.826,-3.216 0.848,-5.416 1.262,-7.285 -0.408,-0.181 -1.275,1.422 -1.473,-2.377 0.029,-1.65 0.459,-0.865 0.625,-1.271 -0.324,-0.186 -1.174,-1.451 -1.691,-3.877 0.375,-0.57 1.002,1.478 1.512,1.562 -0.328,-1.929 -0.893,-3.4 -0.916,-4.88 -1.49,-3.114 -0.527,0.415 -1.736,-1.337 -1.586,-4.947 1.316,-1.148 1.512,-3.396 2.404,3.483 3.775,8.881 4.404,11.117 -0.48,-2.726 -1.256,-5.367 -2.203,-7.922 0.73,0.307 -1.176,-5.609 0.949,-1.691 C 83.519,18.706 76.074,10.902 69.225,7.24 70.063,8.007 71.121,8.97 70.741,9.121 67.335,7.093 67.934,6.935 67.446,6.078 64.671,4.949 64.489,6.169 62.651,6.08 57.421,3.306 56.413,3.601 51.6,1.863 l 0.219,1.023 c -3.465,-1.154 -4.037,0.438 -7.782,0.004 -0.228,-0.178 1.2,-0.644 2.375,-0.815 -3.35,0.442 -3.193,-0.66 -6.471,0.122 0.808,-0.567 1.662,-0.942 2.524,-1.424 -2.732,0.166 -6.522,1.59 -5.352,0.295 -4.456,1.988 -12.37,4.779 -16.811,8.943 l -0.14,-0.933 c -2.035,2.443 -8.874,7.296 -9.419,10.46 l -0.544,0.127 c -1.059,1.793 -1.744,3.825 -2.584,5.67 -1.385,2.36 -2.03,0.908 -1.833,1.278 -2.724,5.523 -4.077,10.164 -5.246,13.97 0.833,1.245 0.02,7.495 0.335,12.497 -1.368,24.704 17.338,48.69 37.785,54.228 2.997,1.072 7.454,1.031 11.245,1.141 -4.473,-1.279 -5.051,-0.678 -9.408,-2.197 -3.143,-1.48 -3.832,-3.17 -6.058,-5.102 l 0.881,1.557 c -4.366,-1.545 -2.539,-1.912 -6.091,-3.037 l 0.941,-1.229 C 28.751,98.334 26.418,96.056 25.78,94.795 l -1.548,0.061 c -1.86,-2.295 -2.851,-3.949 -2.779,-5.23 l -0.5,0.891 c -0.567,-0.973 -6.843,-8.607 -3.587,-6.83 -0.605,-0.553 -1.409,-0.9 -2.281,-2.484 l 0.663,-0.758 c -1.567,-2.016 -2.884,-4.6 -2.784,-5.461 0.836,1.129 1.416,1.34 1.99,1.533 -3.957,-9.818 -4.179,-0.541 -7.176,-9.994 L 8.412,66.472 C 7.926,65.74 7.631,64.945 7.24,64.165 l 0.276,-2.75 C 4.667,58.121 6.719,47.409 7.13,41.534 7.415,39.145 9.508,36.602 11.1,32.614 l -0.97,-0.167 c 1.854,-3.234 10.586,-12.988 14.63,-12.486 1.959,-2.461 -0.389,-0.009 -0.772,-0.629 4.303,-4.453 5.656,-3.146 8.56,-3.947 3.132,-1.859 -2.688,0.725 -1.203,-0.709 5.414,-1.383 3.837,-3.144 10.9,-3.846 0.745,0.424 -1.729,0.655 -2.35,1.205 4.511,-2.207 14.275,-1.705 20.617,1.225 7.359,3.439 15.627,13.605 15.953,23.17 l 0.371,0.1 c -0.188,3.802 0.582,8.199 -0.752,12.238 l 0.908,-1.912"
               id="path1071" />
            <path
               style="fill:#32b2a7;fill-opacity:1;stroke-width:0.428652"
               inkscape:connector-curvature="0"
               ns2:knockout="Off"
               d="m 32.372,59.764 -0.252,1.26 c 1.181,1.604 2.118,3.342 3.626,4.596 -1.085,-2.118 -1.891,-2.993 -3.374,-5.856"
               id="path1073" />
            <path
               style="fill:#32b2a7;fill-opacity:1;stroke-width:0.428652"
               inkscape:connector-curvature="0"
               ns2:knockout="Off"
               d="m 35.164,59.654 c -0.625,-0.691 -0.995,-1.523 -1.409,-2.352 0.396,1.457 1.207,2.709 1.962,3.982 l -0.553,-1.63"
               id="path1075" />
            <path
               style="fill:#32b2a7;fill-opacity:1;stroke-width:0.428652"
               inkscape:connector-curvature="0"
               ns2:knockout="Off"
               d="m 84.568,48.916 -0.264,0.662 c -0.484,3.438 -1.529,6.84 -3.131,9.994 1.77,-3.328 2.915,-6.968 3.395,-10.656"
               id="path1077" />
            <path
               style="fill:#32b2a7;fill-opacity:1;stroke-width:0.428652"
               inkscape:connector-curvature="0"
               ns2:knockout="Off"
               d="M 45.527,0.537 C 46.742,0.092 48.514,0.293 49.803,0 48.123,0.141 46.451,0.225 44.8,0.438 l 0.727,0.099"
               id="path1079" />
            <path
               style="fill:#32b2a7;fill-opacity:1;stroke-width:0.428652"
               inkscape:connector-curvature="0"
               ns2:knockout="Off"
               d="m 2.872,23.219 c 0.28,2.592 -1.95,3.598 0.494,1.889 1.31,-2.951 -0.512,-0.815 -0.494,-1.889"
               id="path1081" />
            <path
               style="fill:#32b2a7;fill-opacity:1;stroke-width:0.428652"
               inkscape:connector-curvature="0"
               ns2:knockout="Off"
               d="M 0,35.215 C 0.563,33.487 0.665,32.449 0.88,31.449 -0.676,33.438 0.164,33.862 0,35.215"
               id="path1083" />
          </g>
        </g>
      </g>
      <g
         id="g912">
        <path
           style="fill:#f9f9f9;stroke-width:0.264584"
           inkscape:connector-curvature="0"
           ns2:knockout="Off"
           d="m 67.402922,264.73488 c -0.04452,0.0465 -0.04452,7.42539 -0.136518,9.35148 -0.09101,1.5571 -0.229509,4.90377 -3.529683,4.90377 -3.392176,0 -4.217219,-3.8967 -4.492234,-5.5913 -0.32052,-1.8796 -0.32052,-3.43966 -0.32052,-4.12522 0,-2.20111 0.137507,-8.3454 5.317277,-8.3454 1.559075,0 2.429625,0.46 3.117161,0.82504 z m -13.292699,5.41027 c 0,12.92568 6.876353,12.92568 7.88441,12.92568 2.842146,0 4.676236,-1.55907 5.454784,-4.26272 l 0.092,4.07872 c 0.871538,-0.0465 1.742088,-0.13751 3.162667,-0.13751 0.504523,0 0.916055,0 1.28406,0.0465 0.367016,0 0.733043,0.0445 1.145564,0.091 -0.733042,-1.46609 -1.283071,-4.76626 -1.283071,-11.91961 0,-6.96736 0,-18.74748 0.595535,-22.32366 -1.649098,0.78053 -3.071655,1.28505 -6.188816,1.55908 1.237565,1.32956 1.237565,2.0171 1.237565,8.06643 -0.86956,-0.27402 -1.970608,-0.59553 -3.850203,-0.59553 -8.20493,9.9e-4 -9.534497,7.15235 -9.534497,12.47161"
           id="path977" />
        <path
           style="fill:#f9f9f9;stroke-width:0.264584"
           inkscape:connector-curvature="0"
           ns2:knockout="Off"
           d="m 78.97035,267.80456 c 0.0465,-3.8047 0.826033,-7.19688 4.079712,-7.19688 3.576178,0 3.849214,3.94122 3.758202,7.19688 z m 12.375654,0.46 c 0,-5.36377 -1.053563,-10.63653 -7.837914,-10.63653 -9.350494,0 -9.350494,10.36251 -9.350494,12.56065 0,9.30498 4.170724,12.97217 11.184584,12.97217 3.115182,0 4.629741,-0.45604 5.454784,-0.68753 -0.04551,-1.65009 0.183013,-2.70464 0.460007,-4.12522 -0.96453,0.59751 -2.202095,1.37606 -4.952241,1.37606 -7.151367,0 -7.243368,-6.51131 -7.243368,-8.75694 h 12.195609 l 0.08903,-2.70266"
           id="path979" />
        <path
           style="fill:#f9f9f9;stroke-width:0.264584"
           inkscape:connector-curvature="0"
           ns2:knockout="Off"
           d="m 106.25911,270.23517 c 0,4.26273 -0.77855,9.99352 -6.09582,9.99352 -0.734035,0 -1.650091,-0.13949 -2.245626,-0.27601 -0.092,-1.65009 -0.092,-4.49223 -0.092,-7.79241 0,-3.94319 0.411533,-6.00283 0.734032,-7.01386 0.961561,-3.25368 3.116174,-3.29819 3.527704,-3.29819 3.48418,0 4.17171,4.81275 4.17171,8.38695 z m -13.155189,4.99676 c 0,3.39316 0,5.31728 -0.550029,6.78336 1.879595,0.73403 4.21623,1.14556 7.01386,1.14556 1.787598,0 6.967368,0 9.763018,-5.72881 1.32956,-2.65913 1.78759,-6.23531 1.78759,-8.93995 0,-1.65008 -0.184,-5.27078 -1.51258,-7.56388 -1.28208,-2.15264 -3.34568,-3.25368 -5.54481,-3.25368 -4.401217,0 -5.684289,3.66719 -6.370836,5.54678 0,-2.33762 0.04452,-10.49705 0.410544,-14.66876 -2.978665,1.37606 -4.813744,1.60359 -6.783363,1.7876 1.787595,0.73205 1.787595,3.76018 1.787595,13.61618 v 11.2756"
           id="path981" />
        <path
           style="fill:#f9f9f9;stroke-width:0.264584"
           inkscape:connector-curvature="0"
           ns2:knockout="Off"
           d="m 119.9307,282.88683 c -0.91804,-0.13751 -1.56106,-0.22951 -2.89062,-0.22951 -1.46411,0 -2.47513,0.093 -3.52771,0.22951 0.45803,-0.87154 0.64104,-1.28505 0.77855,-4.26273 0.184,-4.0807 0.22951,-14.99126 -0.091,-17.28337 -0.22951,-1.74308 -0.64104,-2.01711 -1.28307,-2.47513 3.7582,-0.36702 4.81275,-0.64105 6.55385,-1.46609 -0.36504,2.01513 -0.41351,3.02615 -0.41351,6.09583 -0.09,15.81729 -0.13652,17.51189 0.87352,19.39149"
           id="path983" />
        <path
           style="fill:#f9f9f9;stroke-width:0.264584"
           inkscape:connector-curvature="0"
           ns2:knockout="Off"
           d="m 134.60935,269.91267 c -0.091,2.88864 -0.13751,4.90575 -0.91803,6.50934 -0.96255,2.0636 -2.56615,2.65913 -3.7582,2.65913 -2.75312,0 -3.34667,-2.29113 -3.34667,-4.53675 0,-4.30823 3.85119,-4.63172 5.5913,-4.63172 z m -12.60714,5.63978 c 0,2.88864 0.87154,5.7753 3.43966,7.01386 1.14557,0.50452 2.29113,0.50452 2.65913,0.50452 4.21821,0 5.6378,-3.11815 6.50934,-5.04325 -0.0465,2.0171 0,3.25368 0.13751,4.85925 0.82504,-0.0465 1.65009,-0.13751 3.02615,-0.13751 0.77855,0 1.51258,0.091 2.29113,0.13751 -0.50453,-0.77855 -0.77855,-1.23856 -0.91804,-3.02615 -0.091,-1.7411 -0.091,-3.48319 -0.091,-5.91281 l 0.0465,-9.35149 c 0,-3.48516 -0.91803,-6.92284 -7.79438,-6.92284 -4.53675,0 -7.1949,1.37606 -8.52446,2.06359 0.55102,1.00905 1.00904,1.87762 1.42058,3.8512 1.78957,-1.55908 4.12719,-2.38412 6.50933,-2.38412 3.80668,0 3.80668,2.52162 3.80668,6.09582 -0.87154,-0.0445 -1.60557,-0.13552 -2.84413,-0.13552 -5.82378,9.9e-4 -9.67398,2.24364 -9.67398,8.38794"
           id="path985" />
        <path
           style="fill:#f9f9f9;stroke-width:0.264584"
           inkscape:connector-curvature="0"
           ns2:knockout="Off"
           d="m 161.01273,278.34909 c 0.0465,1.55908 0.0465,3.20916 0.68753,4.53873 -1.01003,-0.091 -1.60557,-0.22951 -3.48319,-0.22951 -1.10104,0 -1.69658,0.093 -2.56812,0.22951 0.18203,-0.59554 0.27601,-0.82504 0.36702,-1.60557 0.13751,-1.05258 0.22951,-4.58325 0.22951,-5.8218 v -4.95026 c 0,-2.15461 0,-5.27276 -0.13949,-6.37183 -0.091,-0.77855 -0.31854,-2.88667 -2.97965,-2.88667 -2.61264,0 -3.48319,1.92412 -3.8047,3.48319 -0.36504,1.60359 -0.36504,3.34667 -0.36504,10.13003 0.0445,5.8683 0.0445,6.41635 0.50255,8.02192 -0.77855,-0.091 -1.7411,-0.18202 -3.11617,-0.18202 -1.10105,0 -1.83409,0.0445 -2.74916,0.18202 0.32052,-0.73403 0.50452,-1.10105 0.59553,-3.66719 0.093,-2.52163 0.27601,-14.89926 -0.13948,-17.83143 -0.22753,-1.78957 -0.68754,-2.2011 -1.19008,-2.65913 3.71368,-0.184 4.90376,-0.78053 6.05131,-1.37409 v 4.85728 c 0.54904,-1.42256 1.6946,-4.58523 6.27983,-4.58523 5.73078,0 5.7753,4.17171 5.8218,6.92087 v 13.80118"
           id="path987" />
        <path
           style="fill:#a80030;fill-opacity:1;stroke-width:0.264584"
           inkscape:connector-curvature="0"
           ns2:knockout="Off"
           d="m 120.3175,250.91194 -3.79678,3.7948 -3.79481,-3.7948 3.79481,-3.79481 3.79678,3.79481"
           id="path989" />
      </g>
    </g>
  </g>
</svg>
