<?xml version="1.0" encoding="UTF-8"?>
<!-- Created with Inkscape (http://www.inkscape.org/) -->
<svg id="svg1325" width="48px" height="48px" xmlns="http://www.w3.org/2000/svg" xmlns:cc="http://web.resource.org/cc/" xmlns:dc="http://purl.org/dc/elements/1.1/" xmlns:rdf="http://www.w3.org/1999/02/22-rdf-syntax-ns#" xmlns:xlink="http://www.w3.org/1999/xlink">
 <defs id="defs1327">
  <linearGradient id="linearGradient2796">
   <stop id="stop2798" style="stop-color:#2e3436" offset="0"/>
   <stop id="stop2800" style="stop-color:#2e3436;stop-opacity:0" offset="1"/>
  </linearGradient>
  <linearGradient id="linearGradient3052">
   <stop id="stop3054" style="stop-color:#555753" offset="0"/>
   <stop id="stop3056" style="stop-color:#2e3436" offset="1"/>
  </linearGradient>
  <linearGradient id="linearGradient3013">
   <stop id="stop3015" style="stop-color:#2d2d2d" offset="0"/>
   <stop id="stop3017" style="stop-color:#fff" offset="1"/>
  </linearGradient>
  <radialGradient id="radialGradient2991" cx="23.802" cy="33.735" r="12.991" gradientTransform="matrix(.55186 -.074231 .057647 .42857 10.857 24.325)" gradientUnits="userSpaceOnUse">
   <stop id="stop2987" style="stop-color:#555753" offset="0"/>
   <stop id="stop2989" style="stop-color:#555753;stop-opacity:0" offset="1"/>
  </radialGradient>
  <linearGradient id="linearGradient3011" x1="22.625" x2="23.625" y1="15.688" y2="42.722" gradientUnits="userSpaceOnUse" xlink:href="#linearGradient3013"/>
  <linearGradient id="linearGradient3019" x1="35.223" x2="35.223" y1="1.5141" y2="14.403" gradientUnits="userSpaceOnUse" xlink:href="#linearGradient3013"/>
  <linearGradient id="linearGradient3027" x1="23.114" x2="23.114" y1="3.2925" y2="12.783" gradientUnits="userSpaceOnUse" xlink:href="#linearGradient3013"/>
  <linearGradient id="linearGradient3035" x1="15.203" x2="15.203" y1="6.2159" y2="14.587" gradientUnits="userSpaceOnUse" xlink:href="#linearGradient3013"/>
  <linearGradient id="linearGradient3043" x1="8.3527" x2="8.3527" y1="11.509" y2="19.071" gradientUnits="userSpaceOnUse" xlink:href="#linearGradient3013"/>
  <radialGradient id="radialGradient3070" cx="19.45" cy="21.814" r="17.995" gradientTransform="matrix(1.987 -.3381 .12407 .72918 -24.1 13.295)" gradientUnits="userSpaceOnUse" xlink:href="#linearGradient3052"/>
  <radialGradient id="radialGradient3073" cx="18.107" cy="8.0828" r="17.995" gradientTransform="matrix(2.1404 -1.4508e-6 0 .93766 -24.377 2.1711)" gradientUnits="userSpaceOnUse" xlink:href="#linearGradient3052"/>
  <radialGradient id="radialGradient3076" cx="14.954" cy="13.682" r="17.995" gradientTransform="matrix(2.1404 -1.4508e-6 0 .93766 -24.377 2.1711)" gradientUnits="userSpaceOnUse" xlink:href="#linearGradient3052"/>
  <radialGradient id="radialGradient3079" cx="21.494" cy="4.3501" r="17.995" gradientTransform="matrix(2.1404 -1.4508e-6 0 .93766 -24.377 2.1711)" gradientUnits="userSpaceOnUse" xlink:href="#linearGradient3052"/>
  <radialGradient id="radialGradient3082" cx="25.641" cy="3.6836" r="17.995" gradientTransform="matrix(2.1404 -1.4508e-6 0 .93766 -24.377 2.1711)" gradientUnits="userSpaceOnUse" xlink:href="#linearGradient3052"/>
  <linearGradient id="linearGradient2802" x1="23.937" x2="21.679" y1="18.389" y2="41.194" gradientUnits="userSpaceOnUse" xlink:href="#linearGradient2796"/>
  <linearGradient id="linearGradient2804" x1="33.306" x2="33.306" y1="3.717" y2="12.644" gradientUnits="userSpaceOnUse" xlink:href="#linearGradient2796"/>
  <linearGradient id="linearGradient2806" x1="33.129" x2="33.129" y1="12.427" y2="15.743" gradientUnits="userSpaceOnUse" xlink:href="#linearGradient2796"/>
 </defs>
 <metadata id="metadata1330">
  <rdf:RDF>
   <cc:Work rdf:about="">
    <dc:format>image/svg+xml</dc:format>
    <dc:type rdf:resource="http://purl.org/dc/dcmitype/StillImage"/>
    <dc:title>Piedone</dc:title>
    <dc:creator>
     <cc:Agent>
      <dc:title>Lapo Calamandrei</dc:title>
     </cc:Agent>
    </dc:creator>
    <dc:subject>
     <rdf:Bag/>
    </dc:subject>
    <dc:contributor>
     <cc:Agent>
      <dc:title/>
     </cc:Agent>
    </dc:contributor>
    <cc:license rdf:resource="http://creativecommons.org/licenses/GPL/2.0/"/>
   </cc:Work>
   <cc:License rdf:about="http://creativecommons.org/licenses/GPL/2.0/">
    <cc:permits rdf:resource="http://web.resource.org/cc/Reproduction"/>
    <cc:permits rdf:resource="http://web.resource.org/cc/Distribution"/>
    <cc:requires rdf:resource="http://web.resource.org/cc/Notice"/>
    <cc:permits rdf:resource="http://web.resource.org/cc/DerivativeWorks"/>
    <cc:requires rdf:resource="http://web.resource.org/cc/ShareAlike"/>
    <cc:requires rdf:resource="http://web.resource.org/cc/SourceCode"/>
   </cc:License>
  </rdf:RDF>
 </metadata>
 <g id="layer2">
  <g id="g3045" transform="translate(0,1)" style="opacity:.5">
   <path id="path2997" d="m37.844 0.5625c-4.9061 0-7.9173 3.635-8.9062 7.1875-0.4945 1.7763-0.52134 3.5635-0.03125 5.0312s1.7134 2.6562 3.375 2.6562c1.6615 0 3.3014-0.95354 4.8438-2.25s2.967-2.9839 3.9688-4.7188c1.0017-1.7349 1.6349-3.5128 1.25-5.1562-0.19247-0.82173-0.71475-1.5831-1.5-2.0625-0.78525-0.47945-1.7734-0.6875-3-0.6875z" style="fill:none;opacity:1;stroke-linejoin:round;stroke:url(#linearGradient3019)"/>
   <path id="path2995" d="m27.5 15.531c-3.68-0.06067-7.8224 0.80177-11.375 2.5938-3.5494 1.7903-6.5021 4.5665-7.375 8.375-0.96468 4.2057 0.95154 8.8422 4.2188 12.531 3.2587 3.6794 7.8942 6.4375 12.844 6.4375 2.5704 0 5.1078-1.1305 7.2188-2.8438s3.8319-4.0703 4.375-6.875c0.1007-0.51924-0.020321-1.4299-0.28125-1.875-0.41481-0.70761-0.89426-0.90229-1.3125-1.0938-1.1449-0.52414-2.2009-0.56042-3.4688-0.4375-1.2198 0.11827-2.3713 0.3906-3.4062 0.9375-0.56023 0.29605-0.93773 0.57856-1.2812 1-0.065162 0.079942-0.11419 0.14404-0.1875 0.25-0.036657 0.05298-0.052336 0.082565-0.15625 0.3125s-0.15627 1.0623-0.15625 1.0625c0.15601 1.1607-0.30036 1.8663-0.84375 2.1562-0.5743 0.30646-1.4557 0.29778-2.5312-0.5-0.95511-0.70845-1.3482-1.2599-1.4688-1.6875-0.094837-0.33638-0.019992-0.74668 0.28125-1.1875 0.72995-1.0682 2.5309-2.2453 4.7188-3.5625 2.1694-1.3061 4.5426-2.6916 6.4062-4.375 0.91277-0.82448 1.7066-1.6944 2.25-2.75s0.77839-2.3439 0.5625-3.5938c-0.28302-1.6384-1.5731-2.9435-3.1562-3.6875-1.618-0.76039-3.6443-1.1507-5.875-1.1875z" style="fill:none;opacity:1;stroke:url(#linearGradient3011)"/>
   <path id="path2999" d="m23.562 2.5938c-1.5149 0.18425-2.6548 1.0154-3.2812 2.0938s-0.8056 2.349-0.71875 3.5625 0.44572 2.3926 1 3.3438 1.3589 1.7785 2.5 1.8438c1.2457 0.071283 2.1253-0.83268 2.7812-1.8438s1.1348-2.3034 1.375-3.5938 0.25181-2.6001-0.28125-3.7188-1.8306-1.8753-3.375-1.6875z" style="fill:none;opacity:1;stroke-linejoin:round;stroke:url(#linearGradient3027)"/>
   <path id="path3001" d="m8.8438 10.969c-0.61107-0.02139-1.196 0.21826-1.7188 0.59375-1.0443 0.75054-1.5685 1.8829-1.5938 2.9688s0.34924 2.123 0.875 3.0312 1.2306 1.6768 2 2.2188 1.7241 0.9409 2.6875 0.5c0.9383-0.42962 1.1982-1.3392 1.3125-2.2188s0.047819-1.8708-0.15625-2.8438-0.54497-1.9273-1.0625-2.7188-1.2943-1.4945-2.3438-1.5312z" style="fill:none;opacity:1;stroke-linejoin:round;stroke:url(#linearGradient3043)"/>
   <path id="path3003" d="m15.938 5.625c-0.61845-0.14934-1.2746-0.062256-1.9062 0.1875-1.2695 0.50201-2.0631 1.5306-2.3438 2.625s-0.11156 2.2189 0.25 3.25 0.9253 1.9805 1.625 2.6875 1.5949 1.2704 2.6562 1.0625c1.026-0.20045 1.5456-1.0762 1.875-1.9375s0.49684-1.8484 0.5-2.875c0.003157-1.0266-0.15116-2.0882-0.53125-3s-1.0675-1.7446-2.125-2z" style="fill:none;opacity:1;stroke-linejoin:round;stroke:url(#linearGradient3035)"/>
  </g>
 </g>
 <g id="layer1">
  <path id="path4490" d="m37.836 2.5c-8.8851 0-10.552 13-5.5535 13 4.9976 0 14.439-13 5.5535-13z" style="fill:url(#radialGradient3082);stroke:#2e3436"/>
  <path id="path4492" d="m23.119 13.498c2.6798 0.15334 5.6199-9.5828 0.5833-8.9705-5.0348 0.61234-3.2642 8.8171-0.5833 8.9705z" style="fill:url(#radialGradient3079);stroke:#2e3436"/>
  <path id="path4494" d="m10.674 20.409c1.9059-0.87265 0.24547-9.4082-2.9954-7.0803-3.2394 2.3282 1.0895 7.9526 2.9954 7.0803z" style="fill:url(#radialGradient3076);stroke:#2e3436"/>
  <path id="path4496" d="m16.044 15.479c2.2688-0.44327 2.3932-9.3616-1.6528-7.7617-4.0468 1.6002-0.61421 8.2057 1.6528 7.7617z" style="fill:url(#radialGradient3073);stroke:#2e3436"/>
  <path id="path4498" d="m28.088 36.787c0.40686 3.0271-2.2794 4.522-4.9102 2.5705-8.3749-6.212 13.867-9.3107 12.4-17.798-1.2169-7.0445-23.403-4.8757-25.929 6.1465-1.7101 7.4556 7.0393 17.799 16.169 17.799 4.4912 0 9.6715-3.9509 10.641-8.9559 0.74021-3.8166-8.7101-2.2873-8.3705 0.23811z" style="fill:url(#radialGradient3070);stroke:#2e3436"/>
  <path id="path2981" transform="translate(0,1)" d="m27.5 17.031c-3.4162-0.056321-7.4258 0.77649-10.719 2.4375s-5.8517 4.1374-6.5938 7.375c-0.79749 3.4768 0.87853 7.7689 3.9062 11.188s7.3599 5.9375 11.719 5.9375c4.1725 0 9.2149-3.8001 10.125-8.5 0.072485-0.37374 0.022812-0.61366-0.09375-0.8125s-0.34069-0.38679-0.65625-0.53125c-0.63112-0.28892-1.6678-0.38314-2.7188-0.28125s-2.1047 0.39068-2.8438 0.78125c-0.36954 0.19528-0.65501 0.43178-0.8125 0.625s-0.20717 0.32244-0.1875 0.46875c0.2261 1.6822-0.42782 3.0653-1.5938 3.6875s-2.7163 0.44314-4.1562-0.625c-1.102-0.81739-1.7874-1.6351-2.0312-2.5s-0.002373-1.7024 0.5-2.4375c1.0047-1.4703 3.0154-2.6923 5.1875-4s4.5049-2.6676 6.1875-4.1875 2.6699-3.1119 2.3438-5c-0.19181-1.1104-1.0054-1.9648-2.3438-2.5938s-3.169-0.99746-5.2188-1.0312z" style="fill:url(#radialGradient2991);opacity:.7"/>
  <g id="g2836" style="opacity:.3;stroke:#2e3436">
   <path id="path2853" transform="translate(0,1)" d="m27.469 17.5c-3.336-0.054999-7.2559 0.75442-10.469 2.375s-5.6424 4.0028-6.3438 7.0625c-0.74798 3.261 0.82569 7.4441 3.7812 10.781s7.1931 5.7812 11.375 5.7812c3.8985 0 8.797-3.6875 9.6562-8.125 0.055255-0.2849 0.024726-0.40451-0.03125-0.5s-0.18465-0.19675-0.4375-0.3125c-0.5057-0.2315-1.4724-0.3466-2.4688-0.25s-2.0241 0.36816-2.6875 0.71875c-0.33172 0.1753-0.55644 0.37755-0.65625 0.5s-0.093841 0.12432-0.09375 0.125c0.24559 1.8272-0.49093 3.4344-1.8438 4.1562s-3.1091 0.49136-4.6562-0.65625c-1.1494-0.85254-1.9026-1.7394-2.1875-2.75s0.008669-2.0333 0.5625-2.8438c1.1077-1.6209 3.1351-2.8141 5.3125-4.125s4.4992-2.6877 6.125-4.1562 2.4789-2.8441 2.1875-4.5312c-0.16056-0.92947-0.81144-1.662-2.0625-2.25s-3.0608-0.967-5.0625-1z" style="fill:none;opacity:1;stroke:url(#linearGradient2802)"/>
   <path id="path2920" transform="translate(0,1)" d="m37.844 2.5c-3.9474 0-6.1852 2.8544-7 5.7812-0.40742 1.4634-0.41192 2.9222-0.09375 3.875s0.72171 1.3438 1.5312 1.3438c0.8093 0 2.2113-0.67675 3.5625-1.8125s2.6607-2.6799 3.5312-4.1875 1.2417-2.9849 1.0625-3.75c-0.089604-0.38255-0.22844-0.58945-0.59375-0.8125s-1.0131-0.4375-2-0.4375z" style="color:black;fill:none;opacity:1;stroke:url(#linearGradient2804)"/>
   <path id="path2922" transform="translate(0,1)" d="m23.812 4.5312c-0.98076 0.11928-1.4847 0.5382-1.8438 1.1562s-0.50342 1.5164-0.4375 2.4375 0.34795 1.8324 0.71875 2.4688c0.3708 0.63633 0.77808 0.86588 0.9375 0.875 0.045336 0.002594 0.51937-0.19662 1-0.9375 0.48063-0.74088 0.9319-1.8378 1.125-2.875s0.11546-2.0266-0.125-2.5312-0.42531-0.70921-1.375-0.59375z" style="color:black;fill:none;opacity:1;stroke:url(#linearGradient2804)"/>
   <path id="path2926" transform="translate(0,1)" d="m8.7812 12.938c-0.089821-0.003144-0.24507 0.013198-0.53125 0.21875-0.5729 0.41175-0.73629 0.81597-0.75 1.4062s0.2348 1.3572 0.625 2.0312 0.92986 1.2582 1.4062 1.5938c0.4764 0.33558 0.76566 0.30533 0.75 0.3125-0.1101 0.05041 0.11245-0.11019 0.1875-0.6875s0.040068-1.4005-0.125-2.1875-0.45679-1.5663-0.78125-2.0625-0.60396-0.61879-0.78125-0.625z" style="color:black;fill:none;opacity:1;stroke:url(#linearGradient2806)"/>
   <path id="path2924" transform="translate(0,1)" d="m15.5 7.5c-0.1405-0.033927-0.33877-0.02525-0.71875 0.125-0.75405 0.29818-1.0392 0.70291-1.1875 1.2812s-0.079692 1.363 0.1875 2.125 0.70633 1.4829 1.1562 1.9375 0.83373 0.54545 0.90625 0.53125c-0.032975 0.006442 0.22435-0.1301 0.4375-0.6875s0.34122-1.3973 0.34375-2.2188c0.002526-0.82143-0.13728-1.6172-0.375-2.1875s-0.47933-0.84089-0.75-0.90625z" style="color:black;fill:none;opacity:1;stroke:url(#linearGradient2804)"/>
  </g>
 </g>
</svg>
